<?xml version="1.0" encoding="iso-8859-1"?>
<!-- Generator: Adobe Illustrator 19.0.0, SVG Export Plug-In . SVG Version: 6.00 Build 0)  -->
<svg version="1.1" id="Layer_1" xmlns="http://www.w3.org/2000/svg" xmlns:xlink="http://www.w3.org/1999/xlink" x="0px" y="0px"
	 viewBox="0 0 511.999 511.999" style="enable-background:new 0 0 511.999 511.999;" xml:space="preserve">
<path style="fill:#3A5BBC;" d="M501.18,119.281l-32.7,170.522l13.356,177.324c0.98,13.011-9.313,24.118-22.379,24.118H52.53
	c-13.052,0-23.359-11.107-22.379-24.118l13.37-177.324l-32.7-170.522c-3.077-16.033,9.217-30.92,25.553-30.92h439.241
	C491.963,88.361,504.257,103.248,501.18,119.281z"/>
<path style="fill:#E6E6E6;" d="M469.17,42.374v45.987H258.76H42.83V42.374c0-11.935,9.672-21.621,21.607-21.621H447.55
	C459.484,20.754,469.17,30.44,469.17,42.374z"/>
<path style="fill:#518EF8;" d="M459.457,491.246H52.53c-13.052,0-23.359-11.107-22.379-24.118l13.37-177.324h424.96l13.356,177.324
	C482.816,480.139,472.523,491.246,459.457,491.246z"/>
<g>
	<path style="fill:#FFFFFF;" d="M247.722,245.307c0-33.285-27.853-60.364-62.088-60.364s-62.088,27.079-62.088,60.364
		c0,5.715,4.633,10.348,10.348,10.348s10.348-4.633,10.348-10.348c0-21.873,18.569-39.668,41.392-39.668
		s41.392,17.795,41.392,39.668s-18.569,39.668-41.392,39.668h-19.316c-5.715,0-10.348,4.633-10.348,10.348
		c0,5.715,4.633,10.348,10.348,10.348h19.316c22.824,0,41.392,17.795,41.392,39.668c0,21.873-18.569,39.668-41.392,39.668
		s-41.392-17.795-41.392-39.668c0-5.715-4.633-10.348-10.348-10.348s-10.348,4.633-10.348,10.348
		c0,33.285,27.853,60.364,62.088,60.364s62.088-27.079,62.088-60.364c0-20.787-10.864-39.153-27.36-50.016
		C236.858,284.46,247.722,266.092,247.722,245.307z"/>
	<path style="fill:#FFFFFF;" d="M354.929,186.291c-3.238-1.838-7.215-1.794-10.416,0.117l-56.569,33.804
		c-4.905,2.932-6.505,9.284-3.575,14.191c2.933,4.906,9.283,6.508,14.192,3.575l40.912-24.448v181.824
		c0,5.715,4.632,10.348,10.348,10.348s10.348-4.633,10.348-10.348V195.291C360.171,191.566,358.169,188.129,354.929,186.291z"/>
</g>
<g>
	<path style="fill:#333333;" d="M503.66,91.219c-6.098-7.38-14.741-11.99-24.141-12.994v-35.85
		c0-17.628-14.341-31.969-31.969-31.969H64.437c-17.621,0-31.955,14.341-31.955,31.969v35.85c-9.4,1.002-18.041,5.61-24.141,12.992
		c-6.933,8.39-9.734,19.33-7.684,30.014l32.44,169.17L19.831,466.351c-0.682,9.062,2.472,18.082,8.656,24.748
		c6.185,6.668,14.948,10.494,24.041,10.494h406.927c9.097,0,17.859-3.823,24.043-10.49c6.183-6.666,9.338-15.688,8.654-24.753
		l-13.251-175.952l32.44-169.169C513.394,110.547,510.591,99.607,503.66,91.219z M64.437,31.102H447.55
		c6.216,0,11.273,5.057,11.273,11.272v35.639H53.178V42.374C53.178,36.159,58.229,31.102,64.437,31.102z M491.017,117.332
		l-31.09,162.122h-72.852c-5.716,0-10.348,4.633-10.348,10.348c0,5.715,4.632,10.348,10.348,10.348h71.807l12.634,167.753
		c0.255,3.39-0.879,6.631-3.191,9.124c-2.315,2.495-5.465,3.869-8.87,3.869H52.53c-3.402,0-6.552-1.376-8.868-3.872
		c-2.314-2.495-3.448-5.734-3.193-9.12L53.117,300.15h78.706c5.715,0,10.348-4.633,10.348-10.348
		c0-5.715-4.633-10.348-10.348-10.348H52.072L20.982,117.33c-0.883-4.601,0.324-9.315,3.311-12.932
		c2.989-3.616,7.39-5.69,12.078-5.69h439.241c4.695,0,9.104,2.075,12.093,5.693C490.694,108.017,491.901,112.73,491.017,117.332z"/>
	<path style="fill:#333333;" d="M309.81,279.455h-55.88c-5.715,0-10.348,4.633-10.348,10.348c0,5.715,4.633,10.348,10.348,10.348
		h55.88c5.716,0,10.348-4.633,10.348-10.348C320.158,284.088,315.526,279.455,309.81,279.455z"/>
	<circle style="fill:#333333;" cx="360.168" cy="53.865" r="10.348"/>
	<circle style="fill:#333333;" cx="151.827" cy="53.865" r="10.348"/>
</g>
<g>
</g>
<g>
</g>
<g>
</g>
<g>
</g>
<g>
</g>
<g>
</g>
<g>
</g>
<g>
</g>
<g>
</g>
<g>
</g>
<g>
</g>
<g>
</g>
<g>
</g>
<g>
</g>
<g>
</g>
</svg>
